<svg xmlns="http://www.w3.org/2000/svg" width="720" height="560" viewBox="0 0 720 560" role="img" aria-labelledby="title desc">
  <title id="title">Bem-estar comunitário</title>
  <desc id="desc">Ilustração de pessoas em uma comunidade com elementos de saúde e bem-estar.</desc>
  <rect width="720" height="560" rx="36" fill="#edf7f1"/>
  <circle cx="585" cy="108" r="56" fill="#f5c75c"/>
  <path d="M86 424c78-91 170-126 277-105 92 18 160-8 245-85v210H86Z" fill="#dff4e8"/>
  <path d="M90 444h540" stroke="#1f8a5b" stroke-width="10" stroke-linecap="round"/>
  <rect x="190" y="188" width="112" height="188" rx="56" fill="#246b9f"/>
  <circle cx="246" cy="142" r="42" fill="#f3b781"/>
  <path d="M194 244c-40 24-67 61-77 111" stroke="#246b9f" stroke-width="22" stroke-linecap="round"/>
  <path d="M298 242c40 24 69 60 84 107" stroke="#246b9f" stroke-width="22" stroke-linecap="round"/>
  <rect x="405" y="210" width="100" height="166" rx="50" fill="#1f8a5b"/>
  <circle cx="455" cy="166" r="38" fill="#d98f68"/>
  <path d="M408 264c-42 18-73 48-92 91" stroke="#1f8a5b" stroke-width="20" stroke-linecap="round"/>
  <path d="M503 263c39 19 68 49 87 88" stroke="#1f8a5b" stroke-width="20" stroke-linecap="round"/>
  <path d="M345 122c-26 0-46 20-46 45 0 44 46 72 46 72s46-28 46-72c0-25-20-45-46-45Z" fill="#ffffff"/>
  <path d="M345 204c-16-18-25-30-25-38 0-12 9-21 20-21 7 0 12 3 16 9 4-6 9-9 16-9 11 0 20 9 20 21 0 8-9 20-47 38Z" fill="#1f8a5b"/>
  <path d="M92 98h120" stroke="#ffffff" stroke-width="14" stroke-linecap="round"/>
  <path d="M92 132h88" stroke="#ffffff" stroke-width="14" stroke-linecap="round"/>
  <path d="M536 430c-21-40-17-78 13-112 30 34 34 72 13 112h-26Z" fill="#146242"/>
  <path d="M555 428c-42-5-70-27-83-66 40-10 73 4 98 42Z" fill="#1f8a5b"/>
</svg>
