<svg xmlns="http://www.w3.org/2000/svg" width="120" height="120" viewBox="0 0 120 120" role="img" aria-labelledby="title desc">
  <title id="title">Logo Zelo</title>
  <desc id="desc">Símbolo circular com folha e coração representando cuidado e bem-estar.</desc>
  <circle cx="60" cy="60" r="54" fill="#dff4e8"/>
  <circle cx="60" cy="60" r="42" fill="#1f8a5b"/>
  <path d="M60 84c-3-5-19-15-19-29 0-8 6-14 14-14 5 0 9 2 12 6 3-4 7-6 12-6 8 0 14 6 14 14 0 14-16 24-33 29Z" fill="#ffffff"/>
  <path d="M39 48c0-14 11-25 25-25 2 13-7 25-25 25Z" fill="#f5c75c"/>
</svg>
